<svg height="500pt" preserveAspectRatio="xMidYMid meet" viewBox="0 0 500 500" width="500pt" xmlns="http://www.w3.org/2000/svg"><g transform="matrix(.1 0 0 -.1 0 500)"><path d="m2260 3920c-130-23-368-100-509-166-135-63-252-145-367-256-164-160-270-325-338-529-57-169-70-252-70-439 0-193 16-288 75-454 88-246 217-424 455-626 235-200 415-297 674-361 85-21 118-24 315-24 180 0 235 3 300 19 580 135 995 552 1121 1126 27 120 27 438 1 560-60 280-183 519-371 718-172 180-374 308-611 385-197 64-467 83-675 47zm495-25c191-34 431-136 580-247 114-84 273-251 349-365 157-237 236-502 236-793 0-357-128-681-382-963-134-149-402-320-593-380-179-55-226-62-450-62-194 0-218 3-315 27-163 41-302 99-425 176-53 34-55 43-3 16 94-49 377-126 568-155 122-19 373-6 499 25 539 135 938 567 1026 1111 18 106 19 306 4 408-77 512-429 934-916 1096-153 52-415 90-626 92-92 1-105 3-72 10 133 31 356 33 520 4zm-490-55c-425-80-771-333-968-710-284-541-173-1203 270-1621 81-76 172-143 281-206 87-51 68-48-62 8-183 79-297 170-418 331-204 271-301 589-285 933 18 382 195 741 490 997 225 194 449 287 692 286h100zm495-49c36-13 106-43 155-67 418-209 690-606 735-1073 65-671-390-1283-1063-1428-59-13-126-18-237-18-153 0-157 1-262 37-133 46-229 94-339 169-542 371-725 1093-428 1684 67 132 139 231 251 342 199 196 424 315 693 364 145 27 402 21 495-10zm265-77c445-191 758-625 793-1103 30-406-101-764-383-1046-239-240-534-372-850-381l-130-4 80 14c574 96 1010 524 1121 1101 23 121 23 349 0 470-76 404-312 736-671 945-97 56-86 57 40 4zm-1290 8c-6-5-41-31-80-58-280-195-493-526-571-884-28-128-26-438 4-572 41-187 107-346 203-494 63-97 36-78-43 30-109 149-194 342-235 536-25 118-25 382 0 500 79 371 290 682 592 871 109 69 157 94 130 71z"/><path d="m2060 2894c0-58-5-114-10-125-14-25-55-24-74 2-11 16-21 20-40 15-32-8-33-30-2-61 49-49 152-40 181 15 11 21 15 62 15 145v115h-35-35z"/><path d="m2170 2900c0-112 14-159 53-185 39-25 92-30 140-11 65 25 77 53 77 185v111h-35-35v-105c0-92-3-108-20-125-28-28-64-25-89 6-18 23-21 41-21 125v99h-35-35z"/><path d="m2526 2862c-27-75-51-143-54-149-3-9 7-13 31-13 30 0 37 4 46 30 10 29 12 30 70 30 57 0 59-1 70-30 9-26 15-30 47-30 29 0 35 3 30 16-3 9-27 76-54 150l-47 134h-45-45z"/><path d="m2800 2850v-150h35 34l3 106 3 106 60-106 60-106h43 42v150 150h-35-34l-3-102-3-103-59 103-58 102h-44-44z"/><path d="m1909 2606c-32-18-53-67-45-101 8-31 54-60 108-69 55-9 78-23 78-47s-41-42-76-33c-13 3-33 17-43 30-19 24-46 30-68 16-8-5-8-15 2-38 29-70 165-87 225-29 57 55 31 133-49 151-106 24-125 38-95 69 23 22 61 19 79-8 12-18 22-23 45-19 36 5 38 22 7 58-20 23-33 28-83 31-39 2-68-2-85-11z"/><path d="m2232 2583c-7-15-31-83-56-150l-44-123h38c33 0 39 4 49 30 10 29 12 30 70 30s60-1 66-30c6-27 10-30 46-30 34 0 39 3 34 18-3 9-27 76-53 147l-48 130-45 3c-42 3-47 1-57-25z"/><path d="m2470 2460v-150h35 35v150 150h-35-35z"/><path d="m2590 2460v-150h30 30l1 68c1 37 0 85-1 107-2 50 2 45 70-73l56-97 45-3 46-3 2 151 2 150h-35-36v-100c0-55-3-100-7-100-5 0-33 45-63 100l-55 100h-42-43z"/><path d="m2900 2585c0-24 2-25 75-25 41 0 75-3 75-7 0-5-34-46-75-93-61-68-75-91-75-117v-33h120 120v30 30h-75c-41 0-75 3-75 8 1 4 34 43 75 87 61 65 75 86 75 113v32h-120-120z"/></g></svg>